<svg width="1440" height="1024" viewBox="0 0 1440 1024" fill="none" xmlns="http://www.w3.org/2000/svg">
<rect width="1440" height="1024" fill="white"/>
<rect width="846.667" height="815.2" transform="translate(296.667 104.4)" fill="#E7E4E4"/>
<rect width="590" height="64.4" transform="translate(425 740.8)" fill="#B8B8B8"/>
<path d="M679.956 769.5H677.842C677.717 768.892 677.499 768.358 677.186 767.898C676.879 767.438 676.504 767.051 676.061 766.739C675.624 766.421 675.138 766.182 674.604 766.023C674.07 765.864 673.513 765.784 672.933 765.784C671.876 765.784 670.919 766.051 670.061 766.585C669.209 767.119 668.53 767.906 668.024 768.946C667.524 769.986 667.274 771.261 667.274 772.773C667.274 774.284 667.524 775.56 668.024 776.6C668.53 777.639 669.209 778.426 670.061 778.96C670.919 779.494 671.876 779.761 672.933 779.761C673.513 779.761 674.07 779.682 674.604 779.523C675.138 779.364 675.624 779.128 676.061 778.815C676.504 778.497 676.879 778.108 677.186 777.648C677.499 777.182 677.717 776.648 677.842 776.046H679.956C679.797 776.938 679.507 777.736 679.087 778.44C678.666 779.145 678.143 779.744 677.518 780.239C676.893 780.727 676.192 781.1 675.413 781.355C674.641 781.611 673.814 781.739 672.933 781.739C671.445 781.739 670.121 781.375 668.962 780.648C667.803 779.921 666.891 778.886 666.226 777.546C665.561 776.205 665.229 774.614 665.229 772.773C665.229 770.932 665.561 769.341 666.226 768C666.891 766.659 667.803 765.625 668.962 764.898C670.121 764.171 671.445 763.807 672.933 763.807C673.814 763.807 674.641 763.935 675.413 764.19C676.192 764.446 676.893 764.821 677.518 765.315C678.143 765.804 678.666 766.401 679.087 767.105C679.507 767.804 679.797 768.602 679.956 769.5ZM688.417 781.773C687.235 781.773 686.198 781.492 685.306 780.929C684.42 780.367 683.727 779.58 683.227 778.568C682.732 777.557 682.485 776.375 682.485 775.023C682.485 773.659 682.732 772.469 683.227 771.452C683.727 770.435 684.42 769.645 685.306 769.083C686.198 768.52 687.235 768.239 688.417 768.239C689.599 768.239 690.633 768.52 691.519 769.083C692.411 769.645 693.104 770.435 693.599 771.452C694.099 772.469 694.349 773.659 694.349 775.023C694.349 776.375 694.099 777.557 693.599 778.568C693.104 779.58 692.411 780.367 691.519 780.929C690.633 781.492 689.599 781.773 688.417 781.773ZM688.417 779.966C689.315 779.966 690.053 779.736 690.633 779.276C691.212 778.815 691.641 778.21 691.92 777.46C692.198 776.71 692.337 775.898 692.337 775.023C692.337 774.148 692.198 773.333 691.92 772.577C691.641 771.821 691.212 771.21 690.633 770.744C690.053 770.279 689.315 770.046 688.417 770.046C687.519 770.046 686.781 770.279 686.201 770.744C685.621 771.21 685.192 771.821 684.914 772.577C684.636 773.333 684.496 774.148 684.496 775.023C684.496 775.898 684.636 776.71 684.914 777.46C685.192 778.21 685.621 778.815 686.201 779.276C686.781 779.736 687.519 779.966 688.417 779.966ZM699.43 773.625V781.5H697.419V768.409H699.362V770.455H699.533C699.839 769.79 700.305 769.256 700.93 768.852C701.555 768.443 702.362 768.239 703.351 768.239C704.237 768.239 705.013 768.421 705.678 768.784C706.342 769.142 706.859 769.688 707.229 770.421C707.598 771.148 707.783 772.068 707.783 773.182V781.5H705.771V773.318C705.771 772.29 705.504 771.489 704.97 770.915C704.436 770.335 703.703 770.046 702.771 770.046C702.129 770.046 701.555 770.185 701.05 770.463C700.55 770.742 700.155 771.148 699.865 771.682C699.575 772.216 699.43 772.864 699.43 773.625ZM717.288 768.409V770.114H710.231V768.409H717.288ZM712.344 781.5V766.602C712.344 765.852 712.521 765.227 712.873 764.727C713.225 764.227 713.683 763.852 714.245 763.602C714.808 763.352 715.401 763.227 716.026 763.227C716.521 763.227 716.924 763.267 717.237 763.347C717.549 763.426 717.782 763.5 717.935 763.568L717.356 765.307C717.254 765.273 717.112 765.23 716.93 765.179C716.754 765.128 716.521 765.102 716.231 765.102C715.566 765.102 715.086 765.27 714.79 765.605C714.501 765.94 714.356 766.432 714.356 767.08V781.5H712.344ZM720.107 781.5V768.409H722.118V781.5H720.107ZM721.129 766.227C720.737 766.227 720.399 766.094 720.115 765.827C719.837 765.56 719.697 765.239 719.697 764.864C719.697 764.489 719.837 764.168 720.115 763.901C720.399 763.634 720.737 763.5 721.129 763.5C721.521 763.5 721.857 763.634 722.135 763.901C722.419 764.168 722.561 764.489 722.561 764.864C722.561 765.239 722.419 765.56 722.135 765.827C721.857 766.094 721.521 766.227 721.129 766.227ZM725.802 781.5V768.409H727.745V770.386H727.881C728.12 769.739 728.552 769.213 729.177 768.81C729.802 768.406 730.506 768.205 731.29 768.205C731.438 768.205 731.623 768.208 731.844 768.213C732.066 768.219 732.234 768.227 732.347 768.239V770.284C732.279 770.267 732.123 770.242 731.879 770.208C731.64 770.168 731.387 770.148 731.12 770.148C730.484 770.148 729.915 770.281 729.415 770.548C728.921 770.81 728.529 771.173 728.239 771.639C727.955 772.1 727.813 772.625 727.813 773.216V781.5H725.802ZM734.732 781.5V768.409H736.675V770.455H736.845C737.118 769.756 737.558 769.213 738.166 768.827C738.774 768.435 739.504 768.239 740.357 768.239C741.22 768.239 741.939 768.435 742.513 768.827C743.092 769.213 743.544 769.756 743.868 770.455H744.004C744.339 769.779 744.842 769.242 745.513 768.844C746.183 768.44 746.987 768.239 747.925 768.239C749.095 768.239 750.053 768.605 750.797 769.338C751.541 770.065 751.913 771.199 751.913 772.739V781.5H749.902V772.739C749.902 771.773 749.638 771.083 749.109 770.668C748.581 770.253 747.959 770.046 747.243 770.046C746.322 770.046 745.609 770.324 745.104 770.881C744.598 771.432 744.345 772.131 744.345 772.977V781.5H742.3V772.534C742.3 771.79 742.058 771.19 741.575 770.736C741.092 770.276 740.47 770.046 739.709 770.046C739.186 770.046 738.697 770.185 738.243 770.463C737.794 770.742 737.43 771.128 737.152 771.622C736.879 772.111 736.743 772.676 736.743 773.318V781.5H734.732ZM759.443 781.807C758.614 781.807 757.861 781.651 757.185 781.338C756.509 781.02 755.972 780.563 755.574 779.966C755.176 779.364 754.977 778.636 754.977 777.784C754.977 777.034 755.125 776.426 755.42 775.96C755.716 775.489 756.111 775.119 756.605 774.852C757.099 774.585 757.645 774.386 758.241 774.256C758.844 774.119 759.449 774.011 760.057 773.932C760.852 773.83 761.497 773.753 761.991 773.702C762.491 773.645 762.855 773.551 763.082 773.421C763.315 773.29 763.432 773.063 763.432 772.739V772.671C763.432 771.83 763.202 771.176 762.741 770.71C762.287 770.244 761.597 770.011 760.67 770.011C759.71 770.011 758.957 770.222 758.412 770.642C757.866 771.063 757.483 771.511 757.261 771.989L755.352 771.307C755.693 770.511 756.148 769.892 756.716 769.449C757.29 769 757.915 768.688 758.591 768.511C759.273 768.33 759.943 768.239 760.602 768.239C761.023 768.239 761.506 768.29 762.051 768.392C762.602 768.489 763.134 768.69 763.645 768.997C764.162 769.304 764.591 769.767 764.932 770.386C765.273 771.006 765.443 771.835 765.443 772.875V781.5H763.432V779.727H763.33C763.193 780.011 762.966 780.315 762.648 780.639C762.33 780.963 761.906 781.239 761.378 781.466C760.849 781.693 760.205 781.807 759.443 781.807ZM759.75 780C760.545 780 761.216 779.844 761.761 779.531C762.313 779.219 762.727 778.815 763.006 778.321C763.29 777.827 763.432 777.307 763.432 776.761V774.921C763.347 775.023 763.159 775.117 762.869 775.202C762.585 775.281 762.256 775.352 761.881 775.415C761.511 775.472 761.151 775.523 760.798 775.568C760.452 775.608 760.17 775.642 759.955 775.671C759.432 775.739 758.943 775.85 758.489 776.003C758.04 776.151 757.676 776.375 757.398 776.676C757.125 776.972 756.989 777.375 756.989 777.886C756.989 778.585 757.247 779.114 757.764 779.472C758.287 779.824 758.949 780 759.75 780ZM769.114 781.5V768.409H771.058V770.386H771.194C771.433 769.739 771.864 769.213 772.489 768.81C773.114 768.406 773.819 768.205 774.603 768.205C774.751 768.205 774.935 768.208 775.157 768.213C775.379 768.219 775.546 768.227 775.66 768.239V770.284C775.592 770.267 775.435 770.242 775.191 770.208C774.952 770.168 774.7 770.148 774.433 770.148C773.796 770.148 773.228 770.281 772.728 770.548C772.234 770.81 771.842 771.173 771.552 771.639C771.268 772.1 771.126 772.625 771.126 773.216V781.5H769.114Z" fill="black"/>
<g clip-path="url(#clip0_1_2)">
<path d="M431.115 224.345V241.8H429.069L419.558 228.095H419.387V241.8H417.274V224.345H419.319L428.865 238.084H429.035V224.345H431.115ZM434.56 229.561V228.641C434.56 227.834 434.725 227.118 435.054 226.493C435.384 225.868 435.853 225.377 436.461 225.019C437.069 224.661 437.787 224.482 438.617 224.482C439.878 224.482 440.87 224.874 441.591 225.658C442.313 226.436 442.674 227.431 442.674 228.641V229.561C442.674 230.368 442.512 231.081 442.188 231.701C441.864 232.32 441.401 232.806 440.799 233.158C440.196 233.51 439.48 233.686 438.651 233.686C437.39 233.686 436.392 233.303 435.659 232.536C434.926 231.763 434.56 230.772 434.56 229.561ZM436.605 228.641V229.561C436.605 230.26 436.776 230.84 437.117 231.3C437.458 231.755 437.969 231.982 438.651 231.982C439.316 231.982 439.81 231.755 440.134 231.3C440.463 230.84 440.628 230.26 440.628 229.561V228.641C440.628 227.959 440.463 227.385 440.134 226.919C439.804 226.453 439.299 226.22 438.617 226.22C437.952 226.22 437.449 226.453 437.108 226.919C436.773 227.385 436.605 227.959 436.605 228.641ZM458.296 228.709V230.414H451.512V228.709H458.296ZM453.489 225.573H455.5V238.05C455.5 238.618 455.583 239.044 455.748 239.328C455.918 239.607 456.134 239.794 456.395 239.891C456.662 239.982 456.944 240.027 457.239 240.027C457.461 240.027 457.642 240.016 457.784 239.993C457.926 239.965 458.04 239.942 458.125 239.925L458.534 241.732C458.398 241.783 458.208 241.834 457.963 241.885C457.719 241.942 457.409 241.97 457.034 241.97C456.466 241.97 455.909 241.848 455.364 241.604C454.824 241.36 454.375 240.988 454.017 240.488C453.665 239.988 453.489 239.357 453.489 238.595V225.573ZM465.174 242.107C464.344 242.107 463.591 241.951 462.915 241.638C462.239 241.32 461.702 240.863 461.304 240.266C460.907 239.664 460.708 238.936 460.708 238.084C460.708 237.334 460.855 236.726 461.151 236.26C461.446 235.789 461.841 235.419 462.336 235.152C462.83 234.885 463.375 234.686 463.972 234.556C464.574 234.419 465.179 234.311 465.787 234.232C466.583 234.13 467.228 234.053 467.722 234.002C468.222 233.945 468.586 233.851 468.813 233.72C469.046 233.59 469.162 233.363 469.162 233.039V232.97C469.162 232.13 468.932 231.476 468.472 231.01C468.017 230.544 467.327 230.311 466.401 230.311C465.441 230.311 464.688 230.522 464.142 230.942C463.597 231.363 463.213 231.811 462.992 232.289L461.083 231.607C461.424 230.811 461.878 230.192 462.446 229.749C463.02 229.3 463.645 228.988 464.321 228.811C465.003 228.63 465.674 228.539 466.333 228.539C466.753 228.539 467.236 228.59 467.782 228.692C468.333 228.789 468.864 228.99 469.375 229.297C469.892 229.604 470.321 230.067 470.662 230.686C471.003 231.306 471.174 232.135 471.174 233.175V241.8H469.162V240.027H469.06C468.924 240.311 468.696 240.615 468.378 240.939C468.06 241.263 467.637 241.539 467.108 241.766C466.58 241.993 465.935 242.107 465.174 242.107ZM465.48 240.3C466.276 240.3 466.946 240.144 467.492 239.831C468.043 239.519 468.458 239.115 468.736 238.621C469.02 238.127 469.162 237.607 469.162 237.061V235.22C469.077 235.323 468.89 235.416 468.6 235.502C468.316 235.581 467.986 235.652 467.611 235.715C467.242 235.772 466.881 235.823 466.529 235.868C466.182 235.908 465.901 235.942 465.685 235.97C465.162 236.039 464.674 236.149 464.219 236.303C463.77 236.451 463.407 236.675 463.128 236.976C462.855 237.272 462.719 237.675 462.719 238.186C462.719 238.885 462.978 239.414 463.495 239.772C464.017 240.124 464.679 240.3 465.48 240.3ZM474.845 241.8V228.709H476.788V230.686H476.924C477.163 230.039 477.595 229.513 478.22 229.11C478.845 228.706 479.549 228.505 480.333 228.505C480.481 228.505 480.666 228.507 480.887 228.513C481.109 228.519 481.277 228.527 481.39 228.539V230.584C481.322 230.567 481.166 230.541 480.922 230.507C480.683 230.468 480.43 230.448 480.163 230.448C479.527 230.448 478.958 230.581 478.458 230.848C477.964 231.11 477.572 231.473 477.282 231.939C476.998 232.399 476.856 232.925 476.856 233.516V241.8H474.845ZM483.775 228.709H485.786V242.755C485.786 243.561 485.647 244.26 485.368 244.851C485.096 245.442 484.681 245.899 484.124 246.223C483.573 246.547 482.877 246.709 482.036 246.709C481.968 246.709 481.9 246.709 481.831 246.709C481.763 246.709 481.695 246.709 481.627 246.709V244.834C481.695 244.834 481.757 244.834 481.814 244.834C481.871 244.834 481.934 244.834 482.002 244.834C482.615 244.834 483.064 244.652 483.348 244.289C483.632 243.931 483.775 243.419 483.775 242.755V228.709ZM484.763 226.527C484.371 226.527 484.033 226.394 483.749 226.127C483.471 225.86 483.331 225.539 483.331 225.164C483.331 224.789 483.471 224.468 483.749 224.201C484.033 223.934 484.371 223.8 484.763 223.8C485.155 223.8 485.49 223.934 485.769 224.201C486.053 224.468 486.195 224.789 486.195 225.164C486.195 225.539 486.053 225.86 485.769 226.127C485.49 226.394 485.155 226.527 484.763 226.527ZM494.958 242.073C493.697 242.073 492.609 241.794 491.694 241.238C490.785 240.675 490.083 239.891 489.589 238.885C489.1 237.874 488.856 236.698 488.856 235.357C488.856 234.016 489.1 232.834 489.589 231.811C490.083 230.783 490.771 229.982 491.652 229.408C492.538 228.828 493.572 228.539 494.754 228.539C495.436 228.539 496.109 228.652 496.774 228.88C497.439 229.107 498.044 229.476 498.589 229.988C499.135 230.493 499.569 231.164 499.893 231.999C500.217 232.834 500.379 233.863 500.379 235.084V235.936H490.288V234.198H498.333C498.333 233.459 498.186 232.8 497.89 232.22C497.6 231.641 497.186 231.184 496.646 230.848C496.112 230.513 495.481 230.345 494.754 230.345C493.953 230.345 493.26 230.544 492.674 230.942C492.095 231.334 491.649 231.845 491.336 232.476C491.024 233.107 490.868 233.783 490.868 234.505V235.664C490.868 236.652 491.038 237.49 491.379 238.178C491.725 238.86 492.206 239.38 492.819 239.738C493.433 240.09 494.146 240.266 494.958 240.266C495.487 240.266 495.964 240.192 496.39 240.044C496.822 239.891 497.194 239.664 497.507 239.363C497.819 239.056 498.061 238.675 498.231 238.22L500.174 238.766C499.97 239.425 499.626 240.005 499.143 240.505C498.66 240.999 498.064 241.385 497.353 241.664C496.643 241.936 495.845 242.073 494.958 242.073ZM509.132 228.709V230.414H502.348V228.709H509.132ZM504.325 225.573H506.336V238.05C506.336 238.618 506.419 239.044 506.583 239.328C506.754 239.607 506.97 239.794 507.231 239.891C507.498 239.982 507.779 240.027 508.075 240.027C508.297 240.027 508.478 240.016 508.62 239.993C508.762 239.965 508.876 239.942 508.961 239.925L509.37 241.732C509.234 241.783 509.044 241.834 508.799 241.885C508.555 241.942 508.245 241.97 507.87 241.97C507.302 241.97 506.745 241.848 506.2 241.604C505.66 241.36 505.211 240.988 504.853 240.488C504.501 239.988 504.325 239.357 504.325 238.595V225.573ZM516.01 242.107C515.18 242.107 514.427 241.951 513.751 241.638C513.075 241.32 512.538 240.863 512.14 240.266C511.743 239.664 511.544 238.936 511.544 238.084C511.544 237.334 511.691 236.726 511.987 236.26C512.282 235.789 512.677 235.419 513.172 235.152C513.666 234.885 514.211 234.686 514.808 234.556C515.41 234.419 516.015 234.311 516.623 234.232C517.419 234.13 518.064 234.053 518.558 234.002C519.058 233.945 519.422 233.851 519.649 233.72C519.882 233.59 519.998 233.363 519.998 233.039V232.97C519.998 232.13 519.768 231.476 519.308 231.01C518.853 230.544 518.163 230.311 517.237 230.311C516.277 230.311 515.524 230.522 514.978 230.942C514.433 231.363 514.049 231.811 513.828 232.289L511.919 231.607C512.26 230.811 512.714 230.192 513.282 229.749C513.856 229.3 514.481 228.988 515.157 228.811C515.839 228.63 516.51 228.539 517.169 228.539C517.589 228.539 518.072 228.59 518.618 228.692C519.169 228.789 519.7 228.99 520.211 229.297C520.728 229.604 521.157 230.067 521.498 230.686C521.839 231.306 522.01 232.135 522.01 233.175V241.8H519.998V240.027H519.896C519.76 240.311 519.532 240.615 519.214 240.939C518.896 241.263 518.473 241.539 517.944 241.766C517.416 241.993 516.771 242.107 516.01 242.107ZM516.316 240.3C517.112 240.3 517.782 240.144 518.328 239.831C518.879 239.519 519.294 239.115 519.572 238.621C519.856 238.127 519.998 237.607 519.998 237.061V235.22C519.913 235.323 519.725 235.416 519.436 235.502C519.152 235.581 518.822 235.652 518.447 235.715C518.078 235.772 517.717 235.823 517.365 235.868C517.018 235.908 516.737 235.942 516.521 235.97C515.998 236.039 515.51 236.149 515.055 236.303C514.606 236.451 514.243 236.675 513.964 236.976C513.691 237.272 513.555 237.675 513.555 238.186C513.555 238.885 513.814 239.414 514.331 239.772C514.853 240.124 515.515 240.3 516.316 240.3Z" fill="black"/>
<rect width="610" height="37.4572" transform="translate(415 257.8)" fill="#C1BCBC"/>
<path d="M431.522 328.171H429.409C429.284 327.563 429.065 327.029 428.752 326.569C428.446 326.109 428.071 325.723 427.627 325.41C427.19 325.092 426.704 324.853 426.17 324.694C425.636 324.535 425.079 324.456 424.5 324.456C423.443 324.456 422.485 324.723 421.627 325.257C420.775 325.791 420.096 326.578 419.591 327.617C419.091 328.657 418.841 329.933 418.841 331.444C418.841 332.956 419.091 334.231 419.591 335.271C420.096 336.311 420.775 337.098 421.627 337.632C422.485 338.166 423.443 338.433 424.5 338.433C425.079 338.433 425.636 338.353 426.17 338.194C426.704 338.035 427.19 337.799 427.627 337.487C428.071 337.169 428.446 336.779 428.752 336.319C429.065 335.853 429.284 335.319 429.409 334.717H431.522C431.363 335.609 431.074 336.407 430.653 337.112C430.233 337.816 429.71 338.416 429.085 338.91C428.46 339.399 427.758 339.771 426.98 340.027C426.207 340.282 425.38 340.41 424.5 340.41C423.011 340.41 421.687 340.046 420.528 339.319C419.369 338.592 418.457 337.558 417.792 336.217C417.127 334.876 416.795 333.285 416.795 331.444C416.795 329.603 417.127 328.012 417.792 326.671C418.457 325.331 419.369 324.296 420.528 323.569C421.687 322.842 423.011 322.478 424.5 322.478C425.38 322.478 426.207 322.606 426.98 322.862C427.758 323.117 428.46 323.492 429.085 323.987C429.71 324.475 430.233 325.072 430.653 325.777C431.074 326.475 431.363 327.274 431.522 328.171ZM438.517 340.478C437.688 340.478 436.935 340.322 436.259 340.01C435.583 339.691 435.046 339.234 434.648 338.637C434.25 338.035 434.051 337.308 434.051 336.456C434.051 335.706 434.199 335.098 434.495 334.632C434.79 334.16 435.185 333.791 435.679 333.524C436.174 333.257 436.719 333.058 437.316 332.927C437.918 332.791 438.523 332.683 439.131 332.603C439.926 332.501 440.571 332.424 441.066 332.373C441.566 332.316 441.929 332.223 442.157 332.092C442.39 331.961 442.506 331.734 442.506 331.41V331.342C442.506 330.501 442.276 329.848 441.816 329.382C441.361 328.916 440.671 328.683 439.745 328.683C438.784 328.683 438.032 328.893 437.486 329.313C436.941 329.734 436.557 330.183 436.336 330.66L434.426 329.978C434.767 329.183 435.222 328.563 435.79 328.12C436.364 327.671 436.989 327.359 437.665 327.183C438.347 327.001 439.017 326.91 439.676 326.91C440.097 326.91 440.58 326.961 441.125 327.063C441.676 327.16 442.208 327.362 442.719 327.669C443.236 327.975 443.665 328.438 444.006 329.058C444.347 329.677 444.517 330.507 444.517 331.546V340.171H442.506V338.399H442.404C442.267 338.683 442.04 338.987 441.722 339.311C441.404 339.635 440.98 339.91 440.452 340.137C439.924 340.365 439.279 340.478 438.517 340.478ZM438.824 338.671C439.62 338.671 440.29 338.515 440.836 338.203C441.387 337.89 441.801 337.487 442.08 336.992C442.364 336.498 442.506 335.978 442.506 335.433V333.592C442.421 333.694 442.233 333.788 441.944 333.873C441.659 333.953 441.33 334.024 440.955 334.086C440.586 334.143 440.225 334.194 439.873 334.24C439.526 334.279 439.245 334.313 439.029 334.342C438.506 334.41 438.017 334.521 437.563 334.674C437.114 334.822 436.75 335.046 436.472 335.348C436.199 335.643 436.063 336.046 436.063 336.558C436.063 337.257 436.321 337.785 436.838 338.143C437.361 338.495 438.023 338.671 438.824 338.671ZM453.132 340.444C452.041 340.444 451.078 340.169 450.243 339.617C449.407 339.061 448.754 338.277 448.282 337.265C447.811 336.248 447.575 335.046 447.575 333.66C447.575 332.285 447.811 331.092 448.282 330.081C448.754 329.069 449.41 328.288 450.251 327.737C451.092 327.186 452.064 326.91 453.166 326.91C454.018 326.91 454.691 327.052 455.186 327.336C455.686 327.615 456.066 327.933 456.328 328.291C456.595 328.643 456.802 328.933 456.95 329.16H457.12V322.717H459.132V340.171H457.189V338.16H456.95C456.802 338.399 456.592 338.7 456.319 339.063C456.047 339.421 455.657 339.742 455.152 340.027C454.646 340.305 453.973 340.444 453.132 340.444ZM453.404 338.637C454.211 338.637 454.893 338.427 455.45 338.007C456.007 337.581 456.43 336.992 456.72 336.242C457.01 335.487 457.154 334.615 457.154 333.626C457.154 332.649 457.012 331.794 456.728 331.061C456.444 330.322 456.024 329.748 455.467 329.339C454.91 328.924 454.223 328.717 453.404 328.717C452.552 328.717 451.842 328.936 451.274 329.373C450.711 329.805 450.288 330.393 450.004 331.137C449.725 331.876 449.586 332.706 449.586 333.626C449.586 334.558 449.728 335.404 450.012 336.166C450.302 336.921 450.728 337.524 451.291 337.973C451.859 338.416 452.564 338.637 453.404 338.637ZM471.345 334.819V327.081H473.356V340.171H471.345V337.956H471.208C470.902 338.62 470.424 339.186 469.777 339.652C469.129 340.112 468.311 340.342 467.322 340.342C466.504 340.342 465.777 340.163 465.14 339.805C464.504 339.441 464.004 338.896 463.64 338.169C463.277 337.436 463.095 336.512 463.095 335.399V327.081H465.106V335.262C465.106 336.217 465.373 336.978 465.907 337.546C466.447 338.115 467.135 338.399 467.97 338.399C468.47 338.399 468.978 338.271 469.495 338.015C470.018 337.76 470.456 337.367 470.808 336.839C471.166 336.311 471.345 335.637 471.345 334.819ZM482.358 340.444C481.131 340.444 480.074 340.154 479.188 339.575C478.301 338.995 477.62 338.197 477.142 337.18C476.665 336.163 476.426 335.001 476.426 333.694C476.426 332.365 476.671 331.191 477.159 330.174C477.654 329.152 478.341 328.353 479.222 327.779C480.108 327.2 481.142 326.91 482.324 326.91C483.245 326.91 484.074 327.081 484.813 327.421C485.551 327.762 486.157 328.24 486.628 328.853C487.1 329.467 487.392 330.183 487.506 331.001H485.495C485.341 330.404 485 329.876 484.472 329.416C483.949 328.95 483.245 328.717 482.358 328.717C481.574 328.717 480.887 328.921 480.296 329.331C479.711 329.734 479.253 330.305 478.924 331.044C478.6 331.777 478.438 332.637 478.438 333.626C478.438 334.637 478.597 335.518 478.915 336.268C479.239 337.018 479.694 337.6 480.279 338.015C480.87 338.43 481.563 338.637 482.358 338.637C482.881 338.637 483.355 338.546 483.782 338.365C484.208 338.183 484.569 337.921 484.864 337.581C485.159 337.24 485.37 336.831 485.495 336.353H487.506C487.392 337.126 487.111 337.822 486.662 338.441C486.219 339.055 485.631 339.544 484.898 339.907C484.171 340.265 483.324 340.444 482.358 340.444ZM490.446 340.171V327.081H492.458V340.171H490.446ZM491.469 324.899C491.077 324.899 490.739 324.765 490.455 324.498C490.176 324.231 490.037 323.91 490.037 323.535C490.037 323.16 490.176 322.839 490.455 322.572C490.739 322.305 491.077 322.171 491.469 322.171C491.861 322.171 492.196 322.305 492.475 322.572C492.759 322.839 492.901 323.16 492.901 323.535C492.901 323.91 492.759 324.231 492.475 324.498C492.196 324.765 491.861 324.899 491.469 324.899ZM501.085 340.444C499.994 340.444 499.031 340.169 498.196 339.617C497.36 339.061 496.707 338.277 496.235 337.265C495.764 336.248 495.528 335.046 495.528 333.66C495.528 332.285 495.764 331.092 496.235 330.081C496.707 329.069 497.363 328.288 498.204 327.737C499.045 327.186 500.017 326.91 501.119 326.91C501.971 326.91 502.645 327.052 503.139 327.336C503.639 327.615 504.02 327.933 504.281 328.291C504.548 328.643 504.755 328.933 504.903 329.16H505.074V322.717H507.085V340.171H505.142V338.16H504.903C504.755 338.399 504.545 338.7 504.272 339.063C504 339.421 503.61 339.742 503.105 340.027C502.599 340.305 501.926 340.444 501.085 340.444ZM501.358 338.637C502.164 338.637 502.846 338.427 503.403 338.007C503.96 337.581 504.383 336.992 504.673 336.242C504.963 335.487 505.108 334.615 505.108 333.626C505.108 332.649 504.966 331.794 504.681 331.061C504.397 330.322 503.977 329.748 503.42 329.339C502.863 328.924 502.176 328.717 501.358 328.717C500.505 328.717 499.795 328.936 499.227 329.373C498.664 329.805 498.241 330.393 497.957 331.137C497.679 331.876 497.539 332.706 497.539 333.626C497.539 334.558 497.681 335.404 497.966 336.166C498.255 336.921 498.681 337.524 499.244 337.973C499.812 338.416 500.517 338.637 501.358 338.637ZM514.9 340.478C514.071 340.478 513.318 340.322 512.642 340.01C511.966 339.691 511.429 339.234 511.031 338.637C510.633 338.035 510.434 337.308 510.434 336.456C510.434 335.706 510.582 335.098 510.877 334.632C511.173 334.16 511.568 333.791 512.062 333.524C512.556 333.257 513.102 333.058 513.699 332.927C514.301 332.791 514.906 332.683 515.514 332.603C516.309 332.501 516.954 332.424 517.449 332.373C517.949 332.316 518.312 332.223 518.539 332.092C518.772 331.961 518.889 331.734 518.889 331.41V331.342C518.889 330.501 518.659 329.848 518.199 329.382C517.744 328.916 517.054 328.683 516.127 328.683C515.167 328.683 514.414 328.893 513.869 329.313C513.324 329.734 512.94 330.183 512.718 330.66L510.809 329.978C511.15 329.183 511.605 328.563 512.173 328.12C512.747 327.671 513.372 327.359 514.048 327.183C514.73 327.001 515.4 326.91 516.059 326.91C516.48 326.91 516.963 326.961 517.508 327.063C518.059 327.16 518.591 327.362 519.102 327.669C519.619 327.975 520.048 328.438 520.389 329.058C520.73 329.677 520.9 330.507 520.9 331.546V340.171H518.889V338.399H518.787C518.65 338.683 518.423 338.987 518.105 339.311C517.787 339.635 517.363 339.91 516.835 340.137C516.306 340.365 515.662 340.478 514.9 340.478ZM515.207 338.671C516.002 338.671 516.673 338.515 517.218 338.203C517.77 337.89 518.184 337.487 518.463 336.992C518.747 336.498 518.889 335.978 518.889 335.433V333.592C518.804 333.694 518.616 333.788 518.326 333.873C518.042 333.953 517.713 334.024 517.338 334.086C516.968 334.143 516.608 334.194 516.255 334.24C515.909 334.279 515.627 334.313 515.412 334.342C514.889 334.41 514.4 334.521 513.946 334.674C513.497 334.822 513.133 335.046 512.855 335.348C512.582 335.643 512.446 336.046 512.446 336.558C512.446 337.257 512.704 337.785 513.221 338.143C513.744 338.495 514.406 338.671 515.207 338.671ZM529.515 340.444C528.424 340.444 527.461 340.169 526.625 339.617C525.79 339.061 525.137 338.277 524.665 337.265C524.194 336.248 523.958 335.046 523.958 333.66C523.958 332.285 524.194 331.092 524.665 330.081C525.137 329.069 525.793 328.288 526.634 327.737C527.475 327.186 528.446 326.91 529.549 326.91C530.401 326.91 531.074 327.052 531.569 327.336C532.069 327.615 532.449 327.933 532.711 328.291C532.978 328.643 533.185 328.933 533.333 329.16H533.503V322.717H535.515V340.171H533.571V338.16H533.333C533.185 338.399 532.975 338.7 532.702 339.063C532.429 339.421 532.04 339.742 531.534 340.027C531.029 340.305 530.355 340.444 529.515 340.444ZM529.787 338.637C530.594 338.637 531.276 338.427 531.833 338.007C532.39 337.581 532.813 336.992 533.103 336.242C533.392 335.487 533.537 334.615 533.537 333.626C533.537 332.649 533.395 331.794 533.111 331.061C532.827 330.322 532.407 329.748 531.85 329.339C531.293 328.924 530.605 328.717 529.787 328.717C528.935 328.717 528.225 328.936 527.657 329.373C527.094 329.805 526.671 330.393 526.387 331.137C526.108 331.876 525.969 332.706 525.969 333.626C525.969 334.558 526.111 335.404 526.395 336.166C526.685 336.921 527.111 337.524 527.674 337.973C528.242 338.416 528.946 338.637 529.787 338.637Z" fill="black"/>
<rect width="610" height="37.4572" transform="translate(415 356.171)" fill="#C1BCBC"/>
<path d="M431.21 426.543H429.096C428.971 425.935 428.752 425.401 428.44 424.941C428.133 424.48 427.758 424.094 427.315 423.782C426.877 423.463 426.392 423.225 425.858 423.066C425.324 422.907 424.767 422.827 424.187 422.827C423.13 422.827 422.173 423.094 421.315 423.628C420.463 424.162 419.784 424.949 419.278 425.989C418.778 427.029 418.528 428.304 418.528 429.816C418.528 431.327 418.778 432.603 419.278 433.642C419.784 434.682 420.463 435.469 421.315 436.003C422.173 436.537 423.13 436.804 424.187 436.804C424.767 436.804 425.324 436.725 425.858 436.566C426.392 436.407 426.877 436.171 427.315 435.858C427.758 435.54 428.133 435.151 428.44 434.691C428.752 434.225 428.971 433.691 429.096 433.088H431.21C431.051 433.98 430.761 434.779 430.341 435.483C429.92 436.188 429.397 436.787 428.772 437.282C428.147 437.77 427.446 438.142 426.667 438.398C425.895 438.654 425.068 438.782 424.187 438.782C422.699 438.782 421.375 438.418 420.216 437.691C419.056 436.963 418.145 435.929 417.48 434.588C416.815 433.247 416.483 431.657 416.483 429.816C416.483 427.975 416.815 426.384 417.48 425.043C418.145 423.702 419.056 422.668 420.216 421.941C421.375 421.213 422.699 420.85 424.187 420.85C425.068 420.85 425.895 420.978 426.667 421.233C427.446 421.489 428.147 421.864 428.772 422.358C429.397 422.847 429.92 423.443 430.341 424.148C430.761 424.847 431.051 425.645 431.21 426.543ZM435.341 421.088L440.523 435.782H440.728L445.909 421.088H448.125L441.716 438.543H439.534L433.125 421.088H435.341ZM451.56 421.088L456.742 435.782H456.946L462.128 421.088H464.344L457.935 438.543H455.753L449.344 421.088H451.56Z" fill="black"/>
<rect width="610" height="37.4572" transform="translate(415 454.543)" fill="#C1BCBC"/>
</g>
<defs>
<clipPath id="clip0_1_2">
<rect width="630" height="293.2" fill="white" transform="translate(405 208.8)"/>
</clipPath>
</defs>
</svg>
