<svg width="1440" height="1024" viewBox="0 0 1440 1024" fill="none" xmlns="http://www.w3.org/2000/svg">
<rect width="1440" height="1024" fill="white"/>
<rect width="846.667" height="815.2" transform="translate(296.667 104.4)" fill="#E7E4E4"/>
<rect width="590" height="64.4" transform="translate(425 740.8)" fill="#B8B8B8"/>
<path d="M680.823 769.5H678.71C678.585 768.892 678.366 768.358 678.053 767.898C677.746 767.438 677.371 767.051 676.928 766.739C676.491 766.421 676.005 766.182 675.471 766.023C674.937 765.864 674.38 765.784 673.8 765.784C672.744 765.784 671.786 766.051 670.928 766.585C670.076 767.119 669.397 767.906 668.891 768.946C668.391 769.986 668.141 771.261 668.141 772.773C668.141 774.284 668.391 775.56 668.891 776.6C669.397 777.639 670.076 778.426 670.928 778.96C671.786 779.494 672.744 779.761 673.8 779.761C674.38 779.761 674.937 779.682 675.471 779.523C676.005 779.364 676.491 779.128 676.928 778.815C677.371 778.497 677.746 778.108 678.053 777.648C678.366 777.182 678.585 776.648 678.71 776.046H680.823C680.664 776.938 680.374 777.736 679.954 778.44C679.533 779.145 679.011 779.744 678.386 780.239C677.761 780.727 677.059 781.1 676.281 781.355C675.508 781.611 674.681 781.739 673.8 781.739C672.312 781.739 670.988 781.375 669.829 780.648C668.67 779.921 667.758 778.886 667.093 777.546C666.428 776.205 666.096 774.614 666.096 772.773C666.096 770.932 666.428 769.341 667.093 768C667.758 766.659 668.67 765.625 669.829 764.898C670.988 764.171 672.312 763.807 673.8 763.807C674.681 763.807 675.508 763.935 676.281 764.19C677.059 764.446 677.761 764.821 678.386 765.315C679.011 765.804 679.533 766.401 679.954 767.105C680.374 767.804 680.664 768.602 680.823 769.5ZM689.284 781.773C688.102 781.773 687.065 781.492 686.173 780.929C685.287 780.367 684.594 779.58 684.094 778.568C683.599 777.557 683.352 776.375 683.352 775.023C683.352 773.659 683.599 772.469 684.094 771.452C684.594 770.435 685.287 769.645 686.173 769.083C687.065 768.52 688.102 768.239 689.284 768.239C690.466 768.239 691.5 768.52 692.386 769.083C693.278 769.645 693.972 770.435 694.466 771.452C694.966 772.469 695.216 773.659 695.216 775.023C695.216 776.375 694.966 777.557 694.466 778.568C693.972 779.58 693.278 780.367 692.386 780.929C691.5 781.492 690.466 781.773 689.284 781.773ZM689.284 779.966C690.182 779.966 690.92 779.736 691.5 779.276C692.08 778.815 692.509 778.21 692.787 777.46C693.065 776.71 693.205 775.898 693.205 775.023C693.205 774.148 693.065 773.333 692.787 772.577C692.509 771.821 692.08 771.21 691.5 770.744C690.92 770.279 690.182 770.046 689.284 770.046C688.386 770.046 687.648 770.279 687.068 770.744C686.489 771.21 686.06 771.821 685.781 772.577C685.503 773.333 685.364 774.148 685.364 775.023C685.364 775.898 685.503 776.71 685.781 777.46C686.06 778.21 686.489 778.815 687.068 779.276C687.648 779.736 688.386 779.966 689.284 779.966ZM700.298 773.625V781.5H698.286V768.409H700.229V770.455H700.4C700.707 769.79 701.173 769.256 701.798 768.852C702.423 768.443 703.229 768.239 704.218 768.239C705.104 768.239 705.88 768.421 706.545 768.784C707.21 769.142 707.727 769.688 708.096 770.421C708.465 771.148 708.65 772.068 708.65 773.182V781.5H706.638V773.318C706.638 772.29 706.371 771.489 705.837 770.915C705.303 770.335 704.57 770.046 703.638 770.046C702.996 770.046 702.423 770.185 701.917 770.463C701.417 770.742 701.022 771.148 700.732 771.682C700.442 772.216 700.298 772.864 700.298 773.625ZM718.018 768.409V770.114H711.234V768.409H718.018ZM713.212 765.273H715.223V777.75C715.223 778.318 715.305 778.744 715.47 779.029C715.641 779.307 715.857 779.494 716.118 779.591C716.385 779.682 716.666 779.727 716.962 779.727C717.183 779.727 717.365 779.716 717.507 779.693C717.649 779.665 717.763 779.642 717.848 779.625L718.257 781.432C718.121 781.483 717.93 781.534 717.686 781.585C717.442 781.642 717.132 781.671 716.757 781.671C716.189 781.671 715.632 781.548 715.087 781.304C714.547 781.06 714.098 780.688 713.74 780.188C713.388 779.688 713.212 779.057 713.212 778.296V765.273ZM721.044 781.5V768.409H723.055V781.5H721.044ZM722.067 766.227C721.675 766.227 721.337 766.094 721.053 765.827C720.774 765.56 720.635 765.239 720.635 764.864C720.635 764.489 720.774 764.168 721.053 763.901C721.337 763.634 721.675 763.5 722.067 763.5C722.459 763.5 722.794 763.634 723.072 763.901C723.357 764.168 723.499 764.489 723.499 764.864C723.499 765.239 723.357 765.56 723.072 765.827C722.794 766.094 722.459 766.227 722.067 766.227ZM728.751 773.625V781.5H726.739V768.409H728.683V770.455H728.853C729.16 769.79 729.626 769.256 730.251 768.852C730.876 768.443 731.683 768.239 732.671 768.239C733.558 768.239 734.333 768.421 734.998 768.784C735.663 769.142 736.18 769.688 736.549 770.421C736.918 771.148 737.103 772.068 737.103 773.182V781.5H735.092V773.318C735.092 772.29 734.825 771.489 734.29 770.915C733.756 770.335 733.023 770.046 732.092 770.046C731.45 770.046 730.876 770.185 730.37 770.463C729.87 770.742 729.475 771.148 729.185 771.682C728.896 772.216 728.751 772.864 728.751 773.625ZM749.028 776.148V768.409H751.04V781.5H749.028V779.284H748.892C748.585 779.949 748.108 780.514 747.46 780.98C746.813 781.44 745.994 781.671 745.006 781.671C744.188 781.671 743.46 781.492 742.824 781.134C742.188 780.77 741.688 780.225 741.324 779.497C740.96 778.764 740.778 777.841 740.778 776.727V768.409H742.79V776.591C742.79 777.546 743.057 778.307 743.591 778.875C744.131 779.443 744.818 779.727 745.653 779.727C746.153 779.727 746.662 779.6 747.179 779.344C747.702 779.088 748.139 778.696 748.491 778.168C748.849 777.639 749.028 776.966 749.028 776.148ZM758.576 781.807C757.746 781.807 756.994 781.651 756.317 781.338C755.641 781.02 755.104 780.563 754.707 779.966C754.309 779.364 754.11 778.636 754.11 777.784C754.11 777.034 754.258 776.426 754.553 775.96C754.849 775.489 755.244 775.119 755.738 774.852C756.232 774.585 756.778 774.386 757.374 774.256C757.977 774.119 758.582 774.011 759.19 773.932C759.985 773.83 760.63 773.753 761.124 773.702C761.624 773.645 761.988 773.551 762.215 773.421C762.448 773.29 762.565 773.063 762.565 772.739V772.671C762.565 771.83 762.335 771.176 761.874 770.71C761.42 770.244 760.729 770.011 759.803 770.011C758.843 770.011 758.09 770.222 757.545 770.642C756.999 771.063 756.616 771.511 756.394 771.989L754.485 771.307C754.826 770.511 755.281 769.892 755.849 769.449C756.423 769 757.048 768.688 757.724 768.511C758.406 768.33 759.076 768.239 759.735 768.239C760.156 768.239 760.638 768.29 761.184 768.392C761.735 768.489 762.266 768.69 762.778 768.997C763.295 769.304 763.724 769.767 764.065 770.386C764.406 771.006 764.576 771.835 764.576 772.875V781.5H762.565V779.727H762.462C762.326 780.011 762.099 780.315 761.781 780.639C761.462 780.963 761.039 781.239 760.511 781.466C759.982 781.693 759.337 781.807 758.576 781.807ZM758.883 780C759.678 780 760.349 779.844 760.894 779.531C761.445 779.219 761.86 778.815 762.138 778.321C762.423 777.827 762.565 777.307 762.565 776.761V774.921C762.479 775.023 762.292 775.117 762.002 775.202C761.718 775.281 761.388 775.352 761.013 775.415C760.644 775.472 760.283 775.523 759.931 775.568C759.585 775.608 759.303 775.642 759.087 775.671C758.565 775.739 758.076 775.85 757.621 776.003C757.173 776.151 756.809 776.375 756.531 776.676C756.258 776.972 756.121 777.375 756.121 777.886C756.121 778.585 756.38 779.114 756.897 779.472C757.42 779.824 758.082 780 758.883 780ZM768.247 781.5V768.409H770.19V770.386H770.327C770.565 769.739 770.997 769.213 771.622 768.81C772.247 768.406 772.952 768.205 773.736 768.205C773.884 768.205 774.068 768.208 774.29 768.213C774.511 768.219 774.679 768.227 774.793 768.239V770.284C774.724 770.267 774.568 770.242 774.324 770.208C774.085 770.168 773.832 770.148 773.565 770.148C772.929 770.148 772.361 770.281 771.861 770.548C771.366 770.81 770.974 771.173 770.685 771.639C770.401 772.1 770.259 772.625 770.259 773.216V781.5H768.247Z" fill="black"/>
<g clip-path="url(#clip0_1_2)">
<path d="M431.487 229.8H429.374C429.249 229.192 429.03 228.658 428.717 228.198C428.411 227.738 428.036 227.351 427.592 227.039C427.155 226.72 426.669 226.482 426.135 226.323C425.601 226.164 425.044 226.084 424.464 226.084C423.408 226.084 422.45 226.351 421.592 226.885C420.74 227.419 420.061 228.206 419.555 229.246C419.055 230.286 418.805 231.561 418.805 233.073C418.805 234.584 419.055 235.86 419.555 236.899C420.061 237.939 420.74 238.726 421.592 239.26C422.45 239.794 423.408 240.061 424.464 240.061C425.044 240.061 425.601 239.982 426.135 239.823C426.669 239.664 427.155 239.428 427.592 239.115C428.036 238.797 428.411 238.408 428.717 237.948C429.03 237.482 429.249 236.948 429.374 236.345H431.487C431.328 237.238 431.038 238.036 430.618 238.74C430.197 239.445 429.675 240.044 429.05 240.539C428.425 241.027 427.723 241.399 426.945 241.655C426.172 241.911 425.345 242.039 424.464 242.039C422.976 242.039 421.652 241.675 420.493 240.948C419.334 240.22 418.422 239.186 417.757 237.845C417.092 236.505 416.76 234.914 416.76 233.073C416.76 231.232 417.092 229.641 417.757 228.3C418.422 226.959 419.334 225.925 420.493 225.198C421.652 224.47 422.976 224.107 424.464 224.107C425.345 224.107 426.172 224.235 426.945 224.49C427.723 224.746 428.425 225.121 429.05 225.615C429.675 226.104 430.197 226.701 430.618 227.405C431.038 228.104 431.328 228.902 431.487 229.8ZM438.482 242.107C437.653 242.107 436.9 241.951 436.224 241.638C435.548 241.32 435.011 240.863 434.613 240.266C434.215 239.664 434.016 238.936 434.016 238.084C434.016 237.334 434.164 236.726 434.46 236.26C434.755 235.789 435.15 235.419 435.644 235.152C436.138 234.885 436.684 234.686 437.281 234.556C437.883 234.419 438.488 234.311 439.096 234.232C439.891 234.13 440.536 234.053 441.031 234.002C441.531 233.945 441.894 233.851 442.121 233.72C442.354 233.59 442.471 233.363 442.471 233.039V232.97C442.471 232.13 442.241 231.476 441.781 231.01C441.326 230.544 440.636 230.311 439.71 230.311C438.749 230.311 437.996 230.522 437.451 230.942C436.906 231.363 436.522 231.811 436.3 232.289L434.391 231.607C434.732 230.811 435.187 230.192 435.755 229.749C436.329 229.3 436.954 228.988 437.63 228.811C438.312 228.63 438.982 228.539 439.641 228.539C440.062 228.539 440.545 228.59 441.09 228.692C441.641 228.789 442.173 228.99 442.684 229.297C443.201 229.604 443.63 230.067 443.971 230.686C444.312 231.306 444.482 232.135 444.482 233.175V241.8H442.471V240.027H442.369C442.232 240.311 442.005 240.615 441.687 240.939C441.369 241.263 440.945 241.539 440.417 241.766C439.888 241.993 439.244 242.107 438.482 242.107ZM438.789 240.3C439.585 240.3 440.255 240.144 440.8 239.831C441.352 239.519 441.766 239.115 442.045 238.621C442.329 238.127 442.471 237.607 442.471 237.061V235.22C442.386 235.323 442.198 235.416 441.908 235.502C441.624 235.581 441.295 235.652 440.92 235.715C440.55 235.772 440.19 235.823 439.837 235.868C439.491 235.908 439.21 235.942 438.994 235.97C438.471 236.039 437.982 236.149 437.528 236.303C437.079 236.451 436.715 236.675 436.437 236.976C436.164 237.272 436.028 237.675 436.028 238.186C436.028 238.885 436.286 239.414 436.803 239.772C437.326 240.124 437.988 240.3 438.789 240.3ZM450.165 224.345V241.8H448.153V224.345H450.165ZM455.86 224.345V241.8H453.849V224.345H455.86ZM465.033 242.073C463.771 242.073 462.683 241.794 461.768 241.238C460.859 240.675 460.158 239.891 459.663 238.885C459.175 237.874 458.93 236.698 458.93 235.357C458.93 234.016 459.175 232.834 459.663 231.811C460.158 230.783 460.845 229.982 461.726 229.408C462.612 228.828 463.646 228.539 464.828 228.539C465.51 228.539 466.183 228.652 466.848 228.88C467.513 229.107 468.118 229.476 468.663 229.988C469.209 230.493 469.643 231.164 469.967 231.999C470.291 232.834 470.453 233.863 470.453 235.084V235.936H460.362V234.198H468.408C468.408 233.459 468.26 232.8 467.964 232.22C467.675 231.641 467.26 231.184 466.72 230.848C466.186 230.513 465.555 230.345 464.828 230.345C464.027 230.345 463.334 230.544 462.749 230.942C462.169 231.334 461.723 231.845 461.411 232.476C461.098 233.107 460.942 233.783 460.942 234.505V235.664C460.942 236.652 461.112 237.49 461.453 238.178C461.8 238.86 462.28 239.38 462.893 239.738C463.507 240.09 464.22 240.266 465.033 240.266C465.561 240.266 466.038 240.192 466.464 240.044C466.896 239.891 467.268 239.664 467.581 239.363C467.893 239.056 468.135 238.675 468.305 238.22L470.249 238.766C470.044 239.425 469.7 240.005 469.217 240.505C468.734 240.999 468.138 241.385 467.428 241.664C466.717 241.936 465.919 242.073 465.033 242.073Z" fill="black"/>
<rect width="610" height="37.4572" transform="translate(415 257.8)" fill="#C1BCBC"/>
<path d="M431.107 322.717V340.171H429.061L419.55 326.467H419.38V340.171H417.266V322.717H419.311L428.857 336.456H429.027V322.717H431.107ZM443.314 334.819V327.081H445.325V340.171H443.314V337.956H443.177C442.87 338.62 442.393 339.186 441.745 339.652C441.098 340.112 440.279 340.342 439.291 340.342C438.473 340.342 437.745 340.163 437.109 339.805C436.473 339.441 435.973 338.896 435.609 338.169C435.245 337.436 435.064 336.512 435.064 335.399V327.081H437.075V335.262C437.075 336.217 437.342 336.978 437.876 337.546C438.416 338.115 439.103 338.399 439.939 338.399C440.439 338.399 440.947 338.271 441.464 338.015C441.987 337.76 442.424 337.367 442.777 336.839C443.135 336.311 443.314 335.637 443.314 334.819ZM439.291 325.308L441.37 321.353H443.723L441.064 325.308H439.291ZM449.009 340.171V327.081H450.952V329.126H451.123C451.395 328.427 451.836 327.885 452.444 327.498C453.051 327.106 453.782 326.91 454.634 326.91C455.498 326.91 456.216 327.106 456.79 327.498C457.37 327.885 457.821 328.427 458.145 329.126H458.282C458.617 328.45 459.12 327.913 459.79 327.515C460.461 327.112 461.265 326.91 462.202 326.91C463.373 326.91 464.33 327.277 465.074 328.01C465.819 328.737 466.191 329.87 466.191 331.41V340.171H464.179V331.41C464.179 330.444 463.915 329.754 463.387 329.339C462.858 328.924 462.236 328.717 461.52 328.717C460.6 328.717 459.887 328.995 459.381 329.552C458.875 330.103 458.623 330.802 458.623 331.649V340.171H456.577V331.206C456.577 330.461 456.336 329.862 455.853 329.407C455.37 328.947 454.748 328.717 453.986 328.717C453.463 328.717 452.975 328.856 452.52 329.135C452.071 329.413 451.708 329.799 451.429 330.294C451.157 330.782 451.02 331.348 451.02 331.99V340.171H449.009ZM475.357 340.444C474.096 340.444 473.007 340.166 472.093 339.609C471.184 339.046 470.482 338.262 469.988 337.257C469.499 336.245 469.255 335.069 469.255 333.728C469.255 332.387 469.499 331.206 469.988 330.183C470.482 329.154 471.169 328.353 472.05 327.779C472.936 327.2 473.971 326.91 475.152 326.91C475.834 326.91 476.507 327.024 477.172 327.251C477.837 327.478 478.442 327.848 478.988 328.359C479.533 328.865 479.968 329.535 480.292 330.37C480.615 331.206 480.777 332.234 480.777 333.456V334.308H470.686V332.569H478.732C478.732 331.831 478.584 331.171 478.289 330.592C477.999 330.012 477.584 329.555 477.044 329.22C476.51 328.885 475.88 328.717 475.152 328.717C474.351 328.717 473.658 328.916 473.073 329.313C472.493 329.706 472.047 330.217 471.735 330.848C471.422 331.478 471.266 332.154 471.266 332.876V334.035C471.266 335.024 471.436 335.862 471.777 336.549C472.124 337.231 472.604 337.751 473.218 338.109C473.831 338.461 474.544 338.637 475.357 338.637C475.885 338.637 476.363 338.563 476.789 338.416C477.221 338.262 477.593 338.035 477.905 337.734C478.218 337.427 478.459 337.046 478.63 336.592L480.573 337.137C480.368 337.796 480.025 338.376 479.542 338.876C479.059 339.37 478.462 339.757 477.752 340.035C477.042 340.308 476.243 340.444 475.357 340.444ZM483.837 340.171V327.081H485.78V329.058H485.917C486.155 328.41 486.587 327.885 487.212 327.481C487.837 327.078 488.542 326.876 489.326 326.876C489.473 326.876 489.658 326.879 489.88 326.885C490.101 326.89 490.269 326.899 490.382 326.91V328.956C490.314 328.938 490.158 328.913 489.914 328.879C489.675 328.839 489.422 328.819 489.155 328.819C488.519 328.819 487.951 328.953 487.451 329.22C486.956 329.481 486.564 329.845 486.275 330.311C485.99 330.771 485.848 331.296 485.848 331.887V340.171H483.837ZM497.686 340.444C496.505 340.444 495.468 340.163 494.576 339.6C493.689 339.038 492.996 338.251 492.496 337.24C492.002 336.228 491.755 335.046 491.755 333.694C491.755 332.331 492.002 331.14 492.496 330.123C492.996 329.106 493.689 328.316 494.576 327.754C495.468 327.191 496.505 326.91 497.686 326.91C498.868 326.91 499.902 327.191 500.789 327.754C501.681 328.316 502.374 329.106 502.868 330.123C503.368 331.14 503.618 332.331 503.618 333.694C503.618 335.046 503.368 336.228 502.868 337.24C502.374 338.251 501.681 339.038 500.789 339.6C499.902 340.163 498.868 340.444 497.686 340.444ZM497.686 338.637C498.584 338.637 499.323 338.407 499.902 337.947C500.482 337.487 500.911 336.882 501.189 336.132C501.468 335.382 501.607 334.569 501.607 333.694C501.607 332.819 501.468 332.004 501.189 331.248C500.911 330.492 500.482 329.882 499.902 329.416C499.323 328.95 498.584 328.717 497.686 328.717C496.789 328.717 496.05 328.95 495.471 329.416C494.891 329.882 494.462 330.492 494.184 331.248C493.905 332.004 493.766 332.819 493.766 333.694C493.766 334.569 493.905 335.382 494.184 336.132C494.462 336.882 494.891 337.487 495.471 337.947C496.05 338.407 496.789 338.637 497.686 338.637Z" fill="black"/>
<rect width="610" height="37.4572" transform="translate(415 356.171)" fill="#C1BCBC"/>
<path d="M417.219 438.543V421.088H423.117C424.486 421.088 425.605 421.335 426.475 421.83C427.35 422.318 427.998 422.98 428.418 423.816C428.838 424.651 429.049 425.583 429.049 426.611C429.049 427.639 428.838 428.574 428.418 429.415C428.003 430.256 427.361 430.926 426.492 431.426C425.623 431.921 424.509 432.168 423.151 432.168H418.924V430.293H423.083C424.02 430.293 424.773 430.131 425.341 429.807C425.909 429.483 426.321 429.046 426.577 428.495C426.838 427.938 426.969 427.31 426.969 426.611C426.969 425.912 426.838 425.287 426.577 424.736C426.321 424.185 425.907 423.753 425.333 423.441C424.759 423.122 423.998 422.963 423.049 422.963H419.333V438.543H417.219ZM432.181 438.543V425.452H434.192V438.543H432.181ZM433.203 423.27C432.811 423.27 432.473 423.137 432.189 422.87C431.911 422.603 431.772 422.282 431.772 421.907C431.772 421.532 431.911 421.21 432.189 420.943C432.473 420.676 432.811 420.543 433.203 420.543C433.596 420.543 433.931 420.676 434.209 420.943C434.493 421.21 434.635 421.532 434.635 421.907C434.635 422.282 434.493 422.603 434.209 422.87C433.931 423.137 433.596 423.27 433.203 423.27ZM447.149 428.384L445.342 428.895C445.228 428.594 445.061 428.301 444.839 428.017C444.623 427.728 444.328 427.489 443.953 427.301C443.578 427.114 443.098 427.02 442.512 427.02C441.711 427.02 441.044 427.205 440.51 427.574C439.981 427.938 439.717 428.401 439.717 428.963C439.717 429.463 439.899 429.858 440.262 430.148C440.626 430.438 441.194 430.679 441.967 430.872L443.91 431.35C445.081 431.634 445.953 432.068 446.527 432.654C447.1 433.233 447.387 433.98 447.387 434.895C447.387 435.645 447.172 436.316 446.74 436.907C446.314 437.497 445.717 437.963 444.95 438.304C444.183 438.645 443.291 438.816 442.274 438.816C440.939 438.816 439.833 438.526 438.958 437.946C438.083 437.367 437.529 436.52 437.297 435.407L439.206 434.929C439.387 435.634 439.731 436.162 440.237 436.514C440.748 436.867 441.416 437.043 442.24 437.043C443.177 437.043 443.922 436.844 444.473 436.446C445.029 436.043 445.308 435.56 445.308 434.997C445.308 434.543 445.149 434.162 444.831 433.855C444.512 433.543 444.024 433.31 443.365 433.157L441.183 432.645C439.984 432.361 439.103 431.921 438.541 431.324C437.984 430.722 437.706 429.969 437.706 429.066C437.706 428.327 437.913 427.674 438.328 427.105C438.748 426.537 439.319 426.091 440.041 425.767C440.768 425.443 441.592 425.282 442.512 425.282C443.808 425.282 444.825 425.566 445.564 426.134C446.308 426.702 446.836 427.452 447.149 428.384ZM455.733 438.816C454.551 438.816 453.515 438.534 452.623 437.972C451.736 437.409 451.043 436.622 450.543 435.611C450.049 434.6 449.801 433.418 449.801 432.066C449.801 430.702 450.049 429.512 450.543 428.495C451.043 427.478 451.736 426.688 452.623 426.125C453.515 425.563 454.551 425.282 455.733 425.282C456.915 425.282 457.949 425.563 458.836 426.125C459.728 426.688 460.421 427.478 460.915 428.495C461.415 429.512 461.665 430.702 461.665 432.066C461.665 433.418 461.415 434.6 460.915 435.611C460.421 436.622 459.728 437.409 458.836 437.972C457.949 438.534 456.915 438.816 455.733 438.816ZM455.733 437.009C456.631 437.009 457.37 436.779 457.949 436.318C458.529 435.858 458.958 435.253 459.236 434.503C459.515 433.753 459.654 432.941 459.654 432.066C459.654 431.191 459.515 430.375 459.236 429.62C458.958 428.864 458.529 428.253 457.949 427.787C457.37 427.321 456.631 427.088 455.733 427.088C454.836 427.088 454.097 427.321 453.517 427.787C452.938 428.253 452.509 428.864 452.23 429.62C451.952 430.375 451.813 431.191 451.813 432.066C451.813 432.941 451.952 433.753 452.23 434.503C452.509 435.253 452.938 435.858 453.517 436.318C454.097 436.779 454.836 437.009 455.733 437.009Z" fill="black"/>
<rect width="610" height="37.4572" transform="translate(415 454.543)" fill="#C1BCBC"/>
</g>
<defs>
<clipPath id="clip0_1_2">
<rect width="630" height="293.2" fill="white" transform="translate(405 208.8)"/>
</clipPath>
</defs>
</svg>
